<svg xmlns="http://www.w3.org/2000/svg" width="105.999" height="51" viewBox="0 0 105.999 51">
  <g id="logo_laranja_linhas_pretas" transform="translate(53 25.5)">
    <g id="logo_laranja_linhas_pretas-2" data-name="logo_laranja_linhas_pretas" transform="translate(-53 -25.5)">
      <path id="Caminho_109" data-name="Caminho 109" d="M36.1,60.529l9.671-5.558L45.417,43.42l5.094,5.04L56.069,37.4,56.1,49.25l8.718-5.34L64.95,10.7l-9.317,4.849L50.511,29.716,45.58,21.38,36.1,26.311Z" transform="translate(-26.462 -9.529)" fill="#f39419"/>
      <path id="Caminho_110" data-name="Caminho 110" d="M44.549,43.479l-6.865-3.705.109-32.147,6.32,3.433a.472.472,0,0,0,.518-.79.1.1,0,0,1-.054-.027L37.548,6.455A.514.514,0,0,0,37.33,6.4h-.082a.388.388,0,0,0-.163.055l-9.017,4.74L21.229,7.49a.469.469,0,0,0-.627.245.506.506,0,0,0,.163.6l6.675,3.6L22.809,24.79,18.369,17.3l-.027-.027-.027-.027-.027-.027-.027-.027a.1.1,0,0,0-.054-.027l-.027-.027L11.694,13.32a.469.469,0,0,0-.545.763c.027,0,.027.027.054.027l5.748,3.378-8.5,4.468L1.478,18.2a.472.472,0,0,0-.518.79.1.1,0,0,1,.054.027l6.974,3.76V55.929L1.4,52.006a.458.458,0,0,0-.627.218.472.472,0,0,0,.163.6L8.152,57.1a.4.4,0,0,0,.245.055h.109a.8.8,0,0,0,.245-.055l9.4-5.367,6.838,3.678a.469.469,0,0,0,.627-.245.506.506,0,0,0-.163-.6L18.7,50.943l-.3-10.216,4.168,4.25a.445.445,0,0,0,.654,0c.027-.027.054-.082.082-.109l4.659-9.29.027,9.862a.562.562,0,0,0,.272.463l7,3.76a.472.472,0,1,0,.518-.79.1.1,0,0,1-.054-.027L29.375,45.44l7.846-4.795,6.865,3.705a.469.469,0,0,0,.627-.245.5.5,0,0,0-.163-.627ZM36.73,39.8l-7.791,4.768-.027-11.006a.459.459,0,0,0-.463-.463.506.506,0,0,0-.409.245L22.782,43.833l-4.631-4.577a.445.445,0,0,0-.654,0,.5.5,0,0,0-.136.327l.354,11.279L8.97,55.874V22.746l8.854-4.577,4.713,7.955a.485.485,0,0,0,.654.163.435.435,0,0,0,.191-.245l5.067-13.976,8.445-4.413Z" transform="translate(-0.721 -6.4)" fill="#111"/>
      <path id="Caminho_111" data-name="Caminho 111" d="M192.962,45.887h3.84v-.98h-3.84v-2.1h4.25V41.8H191.9v7.247h1.063Z" transform="translate(-139.816 -32.156)" fill="#1d1d1b"/>
      <path id="Caminho_112" data-name="Caminho 112" d="M217.445,53.621a2.211,2.211,0,0,0,1.8-.872v.735h1.009v-3.3a2.123,2.123,0,0,0-2.26-2.289,4.8,4.8,0,0,0-2.073.545l.384.763a3.415,3.415,0,0,1,1.523-.463,1.274,1.274,0,0,1,1.39,1.417v.163a4.928,4.928,0,0,0-1.633-.3A1.977,1.977,0,0,0,215.4,51.85,1.876,1.876,0,0,0,217.445,53.621Zm.325-2.779a4.762,4.762,0,0,1,1.5.218V51.8a1.593,1.593,0,0,1-1.609,1.008c-.68,0-1.2-.354-1.2-.953S217.064,50.842,217.77,50.842Z" transform="translate(-156.914 -36.594)" fill="#1d1d1b"/>
      <path id="Caminho_113" data-name="Caminho 113" d="M241.586,53.621a2.772,2.772,0,0,0,2.044-.872l-.71-.654a1.75,1.75,0,0,1-1.334.6,1.953,1.953,0,0,1-.027-3.9,1.736,1.736,0,0,1,1.307.6l.71-.654a2.764,2.764,0,0,0-1.99-.845,2.914,2.914,0,0,0-2.887,2.833A2.961,2.961,0,0,0,241.586,53.621Z" transform="translate(-173.866 -36.594)" fill="#1d1d1b"/>
      <path id="Caminho_114" data-name="Caminho 114" d="M263.671,53.985a2,2,0,0,0,1.712-.926v.79h1.035V48.4h-1.035v3.542a1.443,1.443,0,0,1-1.5,1.144,1.271,1.271,0,0,1-1.254-1.389V48.4H261.6v3.46A2.033,2.033,0,0,0,263.671,53.985Z" transform="translate(-190.527 -36.958)" fill="#1d1d1b"/>
      <rect id="Ret창ngulo_14" data-name="Ret창ngulo 14" width="1.035" height="7.356" transform="translate(77.691 9.535)" fill="#1d1d1b"/>
      <path id="Caminho_115" data-name="Caminho 115" d="M299.838,47.8v.953h1.038V41.4h-1.038v2.861a2.213,2.213,0,0,0-1.931-1.063,2.59,2.59,0,0,0-2.508,2.834,2.614,2.614,0,0,0,2.508,2.861A2.251,2.251,0,0,0,299.838,47.8Zm-1.689.163A1.779,1.779,0,0,1,296.434,46a1.716,1.716,0,1,1,3.4,0A1.773,1.773,0,0,1,298.149,47.966Z" transform="translate(-215.12 -31.865)" fill="#1d1d1b"/>
      <path id="Caminho_116" data-name="Caminho 116" d="M322.969,53.621a2.226,2.226,0,0,0,1.8-.872v.735h1.008v-3.3a2.133,2.133,0,0,0-2.292-2.289,4.8,4.8,0,0,0-2.07.545l.382.763a3.437,3.437,0,0,1,1.526-.463,1.275,1.275,0,0,1,1.39,1.417v.163a4.928,4.928,0,0,0-1.633-.3A1.977,1.977,0,0,0,320.9,51.85,1.9,1.9,0,0,0,322.969,53.621Zm.328-2.779a4.732,4.732,0,0,1,1.5.218V51.8a1.584,1.584,0,0,1-1.606,1.008c-.683,0-1.2-.354-1.2-.953S322.564,50.842,323.3,50.842Z" transform="translate(-233.673 -36.594)" fill="#1d1d1b"/>
      <path id="Caminho_117" data-name="Caminho 117" d="M347.005,48.965a2.229,2.229,0,0,0,1.937-1.062v.954h1.032V41.5h-1.032v2.861a2.229,2.229,0,0,0-1.937-1.062,2.589,2.589,0,0,0-2.505,2.833A2.6,2.6,0,0,0,347.005,48.965Zm.248-4.795a1.75,1.75,0,0,1,1.689,1.934,1.721,1.721,0,1,1-3.407,0,1.753,1.753,0,0,1,1.718-1.934Z" transform="translate(-250.846 -31.938)" fill="#1d1d1b"/>
      <path id="Caminho_118" data-name="Caminho 118" d="M373.009,53.694a3.321,3.321,0,0,0,2.206-.845l-.654-.681a2.422,2.422,0,0,1-1.553.6,1.744,1.744,0,0,1-1.745-1.553h4.276c0-1.962-.955-3.215-2.614-3.215a2.742,2.742,0,0,0-2.727,2.833A2.8,2.8,0,0,0,373.009,53.694Zm-.056-4.768a1.537,1.537,0,0,1,1.579,1.444h-3.268a1.692,1.692,0,0,1,1.689-1.444Z" transform="translate(-269.541 -36.667)" fill="#1d1d1b"/>
      <path id="Caminho_119" data-name="Caminho 119" d="M198.9,88.777,195.495,82.7h-3.6V95.424h3.6V88.613l3.406,6.075,3.406-6.075v6.811H205.9V82.7h-3.595Z" transform="translate(-139.816 -61.914)" fill="#1d1d1b"/>
      <path id="Caminho_120" data-name="Caminho 120" d="M262.447,79.719l-3.076-.518-2.07,3.052h2.342Z" transform="translate(-187.401 -59.367)" fill="#1d1d1b"/>
      <path id="Caminho_121" data-name="Caminho 121" d="M251.867,93.5a4.812,4.812,0,0,0-5.066,4.985,4.922,4.922,0,0,0,5.2,5.04,5.905,5.905,0,0,0,3.951-1.471l-1.964-1.989a3.593,3.593,0,0,1-2.124.79,1.967,1.967,0,0,1-1.881-1.5h6.784C256.771,95.653,254.946,93.5,251.867,93.5Zm-1.828,3.976a1.965,1.965,0,0,1,1.828-1.307,1.763,1.763,0,0,1,1.662,1.307Z" transform="translate(-179.762 -69.772)" fill="#1d1d1b"/>
      <rect id="Ret창ngulo_15" data-name="Ret창ngulo 15" width="3.569" height="12.941" transform="translate(77.854 20.569)" fill="#1d1d1b"/>
      <path id="Caminho_122" data-name="Caminho 122" d="M304.7,96.5v8.964h3.6l-.027-8.964Z" transform="translate(-221.885 -71.954)" fill="#1d1d1b"/>
      <path id="Caminho_123" data-name="Caminho 123" d="M306.452,79.3a1.839,1.839,0,1,0,1.825,1.826A1.881,1.881,0,0,0,306.452,79.3Z" transform="translate(-221.812 -59.44)" fill="#1d1d1b"/>
      <path id="Caminho_124" data-name="Caminho 124" d="M326.167,93.5a4.813,4.813,0,0,0-5.069,4.985,4.923,4.923,0,0,0,5.205,5.04,5.911,5.911,0,0,0,3.951-1.471l-1.961-1.989a3.615,3.615,0,0,1-2.126.79,1.97,1.97,0,0,1-1.881-1.5h6.785C331.044,95.653,329.246,93.5,326.167,93.5Zm-1.825,3.976a1.955,1.955,0,0,1,1.825-1.307,1.761,1.761,0,0,1,1.662,1.307Z" transform="translate(-233.819 -69.772)" fill="#1d1d1b"/>
      <path id="Caminho_125" data-name="Caminho 125" d="M331.006,82.252h2.342l-2.07-3.052-3.079.518Z" transform="translate(-238.985 -59.367)" fill="#1d1d1b"/>
      <path id="Caminho_126" data-name="Caminho 126" d="M362.787,96.97c-.955-.217-1.393-.272-1.393-.6,0-.272.328-.546.846-.546a5.85,5.85,0,0,1,2.807,1.009l1.2-2.18a7.345,7.345,0,0,0-4-1.253c-2.508,0-4,1.443-4,3.3,0,2.261,1.934,2.7,3.676,3.051.9.191,1.446.381,1.446.708s-.245.49-.9.49a6.743,6.743,0,0,1-3.327-1.116l-1.331,2.179a7.725,7.725,0,0,0,4.546,1.444c2.591,0,4.17-1.253,4.17-3.242C366.517,97.95,364.529,97.351,362.787,96.97Z" transform="translate(-260.522 -69.7)" fill="#1d1d1b"/>
    </g>
  </g>
</svg>
