<svg xmlns="http://www.w3.org/2000/svg" width="106.767" height="51.359" viewBox="0 0 106.767 51.359">
  <g id="logo_roxo_linhas_brancas" transform="translate(53.384 25.68)">
    <g id="logo_roxo_linhas_brancas-2" data-name="logo_roxo_linhas_brancas" transform="translate(-53.384 -25.68)">
      <path id="Caminho_615" data-name="Caminho 615" d="M36.4,59.5l9.785-5.6-.378-11.65,5.136,5.082L56.511,36.2l.027,11.948,8.812-5.379L65.458,9.3l-9.353,4.92L50.943,28.465l-4.974-8.407L36.4,25.032Z" transform="translate(-26.701 -8.138)" fill="#6b30e4"/>
      <path id="Caminho_616" data-name="Caminho 616" d="M44.657,42.33l-6.92-3.73.108-32.356L44.2,9.676a.469.469,0,0,0,.514-.784c-.027,0-.027-.027-.054-.027L37.6,5.081A.21.21,0,0,0,37.413,5h-.081a.384.384,0,0,0-.162.054L28.06,9.812l-6.893-3.7a.465.465,0,0,0-.622.243.451.451,0,0,0,.189.595l6.731,3.622-4.7,12.948L18.3,15.975v-.027l-.027-.027-.027-.027-.027-.027a.094.094,0,0,0-.054-.027h-.027L11.6,11.974a.465.465,0,0,0-.541.757c.027,0,.027.027.054.027L16.9,16.164,8.327,20.651,1.3,16.867a.469.469,0,1,0-.514.784.094.094,0,0,1,.054.027l7.028,3.784V54.845l-6.65-3.92a.493.493,0,0,0-.649.216.469.469,0,0,0,.162.595L8,56.062a.4.4,0,0,0,.243.054h.108a.789.789,0,0,0,.243-.054l9.461-5.406,6.893,3.7a.469.469,0,1,0,.514-.784.094.094,0,0,1-.054-.027l-6.839-3.676L18.248,39.6l4.271,4.244a.473.473,0,0,0,.676,0c.027-.027.054-.081.081-.108l4.7-9.353.027,9.947a.557.557,0,0,0,.27.46l7.055,3.784a.469.469,0,0,0,.514-.784c-.027-.027-.054-.027-.081-.054L29.384,44.3l7.893-4.839,6.92,3.73a.493.493,0,0,0,.46-.865Zm-7.839-3.676-7.866,4.812-.027-11.083a.462.462,0,0,0-.487-.46.443.443,0,0,0-.405.27l-5.3,10.569L18.085,38.14a.473.473,0,0,0-.676,0,.514.514,0,0,0-.135.351l.351,11.38L8.814,54.926V21.462l8.92-4.622,4.73,8a.481.481,0,0,0,.649.162.431.431,0,0,0,.189-.243l5.109-14.083L36.9,6.216Z" transform="translate(-0.521 -5)" fill="#fff"/>
      <path id="Caminho_617" data-name="Caminho 617" d="M195.681,45.109h3.865v-1h-3.865V42h4.271V41H194.6v7.271h1.081Z" transform="translate(-142.138 -31.269)" fill="#fff"/>
      <path id="Caminho_618" data-name="Caminho 618" d="M220.627,52.858a2.253,2.253,0,0,0,1.838-.892v.757h1.027V49.4a2.129,2.129,0,0,0-2.3-2.3,4.852,4.852,0,0,0-2.081.541l.378.784a3.513,3.513,0,0,1,1.541-.46,1.293,1.293,0,0,1,1.406,1.433v.162a5.059,5.059,0,0,0-1.649-.3A1.972,1.972,0,0,0,218.6,51.1,1.814,1.814,0,0,0,220.627,52.858Zm.324-2.784a5.492,5.492,0,0,1,1.487.216v.73a1.633,1.633,0,0,1-1.622,1.027c-.676,0-1.216-.351-1.216-.946S220.222,50.073,220.952,50.073Z" transform="translate(-159.651 -35.72)" fill="#fff"/>
      <path id="Caminho_619" data-name="Caminho 619" d="M245.065,52.931a2.836,2.836,0,0,0,2.054-.892l-.7-.649a1.865,1.865,0,0,1-1.325.622,1.964,1.964,0,0,1,0-3.92,1.784,1.784,0,0,1,1.325.595l.7-.649a2.864,2.864,0,0,0-2.027-.838,2.865,2.865,0,1,0-.027,5.731Z" transform="translate(-176.871 -35.793)" fill="#fff"/>
      <path id="Caminho_620" data-name="Caminho 620" d="M267.481,53.222a2.038,2.038,0,0,0,1.73-.919v.784h1.054V47.6h-1.054v3.568A1.441,1.441,0,0,1,267.7,52.3a1.281,1.281,0,0,1-1.27-1.379V47.6H265.4v3.487A2.046,2.046,0,0,0,267.481,53.222Z" transform="translate(-193.8 -36.085)" fill="#fff"/>
      <rect id="Ret창ngulo_80" data-name="Ret창ngulo 80" width="1.027" height="7.407" transform="translate(78.276 9.596)" fill="#fff"/>
      <path id="Caminho_621" data-name="Caminho 621" d="M304.16,46.96v.946h1.027V40.5H304.16v2.865a2.245,2.245,0,0,0-1.946-1.081,2.623,2.623,0,0,0-2.514,2.865,2.623,2.623,0,0,0,2.514,2.865A2.165,2.165,0,0,0,304.16,46.96Zm-1.7.162a1.793,1.793,0,0,1-1.73-1.973,1.754,1.754,0,0,1,1.73-1.946,1.78,1.78,0,0,1,1.7,1.946A1.8,1.8,0,0,1,302.457,47.123Z" transform="translate(-218.829 -30.904)" fill="#fff"/>
      <path id="Caminho_622" data-name="Caminho 622" d="M327.827,52.858a2.253,2.253,0,0,0,1.838-.892v.757h1.027V49.4a2.129,2.129,0,0,0-2.3-2.3,4.852,4.852,0,0,0-2.081.541l.378.784a3.513,3.513,0,0,1,1.541-.46,1.293,1.293,0,0,1,1.406,1.433v.162a5.059,5.059,0,0,0-1.649-.3A1.972,1.972,0,0,0,325.8,51.1,1.814,1.814,0,0,0,327.827,52.858Zm.324-2.784a5.492,5.492,0,0,1,1.487.216v.73a1.633,1.633,0,0,1-1.622,1.027c-.676,0-1.216-.351-1.216-.946s.622-1.027,1.352-1.027Z" transform="translate(-237.873 -35.72)" fill="#fff"/>
      <path id="Caminho_623" data-name="Caminho 623" d="M352.014,48.042a2.213,2.213,0,0,0,1.946-1.081v.946h1.027V40.5H353.96v2.865a2.245,2.245,0,0,0-1.946-1.081,2.623,2.623,0,0,0-2.514,2.865A2.632,2.632,0,0,0,352.014,48.042Zm.27-4.839a1.975,1.975,0,1,1-1.73,1.946,1.754,1.754,0,0,1,1.73-1.946Z" transform="translate(-255.167 -30.904)" fill="#fff"/>
      <path id="Caminho_624" data-name="Caminho 624" d="M378.411,52.931a3.3,3.3,0,0,0,2.217-.838l-.649-.676a2.332,2.332,0,0,1-1.568.595,1.738,1.738,0,0,1-1.757-1.568h4.325c0-1.973-.973-3.244-2.649-3.244a2.755,2.755,0,0,0-2.73,2.865A2.8,2.8,0,0,0,378.411,52.931Zm-.027-4.812a1.513,1.513,0,0,1,1.568,1.46h-3.3a1.758,1.758,0,0,1,1.73-1.46Z" transform="translate(-274.212 -35.793)" fill="#fff"/>
      <path id="Caminho_625" data-name="Caminho 625" d="M201.655,88.609,198.222,82.5H194.6V95.313h3.622V88.447l3.433,6.109,3.433-6.109v6.866h3.622V82.5h-3.622Z" transform="translate(-142.138 -61.551)" fill="#fff"/>
      <path id="Caminho_626" data-name="Caminho 626" d="M266.19,79.441l-3.082-.541L261,81.955h2.352Z" transform="translate(-190.59 -58.924)" fill="#fff"/>
      <path id="Caminho_627" data-name="Caminho 627" d="M255.482,93.3a4.854,4.854,0,0,0-5.082,5.028,4.955,4.955,0,0,0,5.244,5.082,6.07,6.07,0,0,0,3.974-1.487l-1.973-2a3.449,3.449,0,0,1-2.135.811,1.953,1.953,0,0,1-1.892-1.514h6.839C260.429,95.49,258.59,93.3,255.482,93.3Zm-1.838,4.028A1.965,1.965,0,0,1,255.482,96a1.717,1.717,0,0,1,1.649,1.325Z" transform="translate(-182.855 -69.432)" fill="#fff"/>
      <rect id="Ret창ngulo_81" data-name="Ret창ngulo 81" width="3.595" height="13.029" transform="translate(78.412 20.706)" fill="#fff"/>
      <path id="Caminho_628" data-name="Caminho 628" d="M309.1,96.5v9.028h3.622L312.7,96.5Z" transform="translate(-225.688 -71.767)" fill="#fff"/>
      <path id="Caminho_629" data-name="Caminho 629" d="M310.865,79a1.852,1.852,0,1,0,1.838,1.838A1.9,1.9,0,0,0,310.865,79Z" transform="translate(-225.615 -58.997)" fill="#fff"/>
      <path id="Caminho_630" data-name="Caminho 630" d="M330.882,93.3a4.84,4.84,0,0,0-5.082,5.028,4.955,4.955,0,0,0,5.244,5.082,6.07,6.07,0,0,0,3.974-1.487l-1.973-2a3.449,3.449,0,0,1-2.135.811,1.953,1.953,0,0,1-1.892-1.514h6.812C335.8,95.49,333.99,93.3,330.882,93.3Zm-1.838,4.028A1.965,1.965,0,0,1,330.882,96a1.717,1.717,0,0,1,1.649,1.325Z" transform="translate(-237.873 -69.432)" fill="#fff"/>
      <path id="Caminho_631" data-name="Caminho 631" d="M335.811,81.955h2.352L336.082,78.9,333,79.441Z" transform="translate(-243.127 -58.924)" fill="#fff"/>
      <path id="Caminho_632" data-name="Caminho 632" d="M367.855,96.9c-.973-.216-1.406-.27-1.406-.595,0-.27.324-.541.838-.541a5.745,5.745,0,0,1,2.811,1.027l1.216-2.217a7.488,7.488,0,0,0-4.028-1.27c-2.514,0-4.028,1.46-4.028,3.325,0,2.271,1.946,2.7,3.7,3.082.892.189,1.46.378,1.46.7s-.243.487-.919.487a6.633,6.633,0,0,1-3.352-1.135l-1.352,2.19a7.7,7.7,0,0,0,4.6,1.46c2.622,0,4.19-1.27,4.19-3.271C371.639,97.868,369.612,97.3,367.855,96.9Z" transform="translate(-264.872 -69.432)" fill="#fff"/>
    </g>
  </g>
</svg>
