<svg xmlns="http://www.w3.org/2000/svg" width="17.721" height="17.721" viewBox="0 0 17.721 17.721">
  <g id="Icon" transform="translate(-0.765 0.7)">
    <rect id="Area" width="17.721" height="17.7" transform="translate(0.765 -0.7)" fill="#1d1d1b" opacity="0"/>
    <path id="Icon_ionic-md-help-circle" data-name="Icon ionic-md-help-circle" d="M12.236,3.375A8.861,8.861,0,1,0,21.1,12.236,8.865,8.865,0,0,0,12.236,3.375ZM13.13,17.56H11.341V15.771H13.13Zm-.009-2.684H11.349c0-2.854,2.658-2.65,2.658-4.422a1.78,1.78,0,0,0-1.772-1.776,1.8,1.8,0,0,0-1.772,1.768H8.691a3.544,3.544,0,0,1,7.088,0C15.78,12.666,13.122,12.917,13.122,14.877Z" transform="translate(-2.61 -4.075)" fill="#fff"/>
  </g>
</svg>
