<svg xmlns="http://www.w3.org/2000/svg" width="29.535" height="17.721" viewBox="0 0 29.535 17.721">
  <g id="Icon" transform="translate(4.992 0.7)">
    <rect id="Area" width="29.535" height="17.7" transform="translate(-4.992 -0.7)" fill="#1d1d1b" opacity="0"/>
    <path id="Icon_awesome-graduation-cap" data-name="Icon awesome-graduation-cap" d="M28.72,8.616,15.847,4.661a3.687,3.687,0,0,0-2.159,0L.815,8.616a1.086,1.086,0,0,0,0,2.1l2.244.689a3.637,3.637,0,0,0-.825,2.164,1.424,1.424,0,0,0-.118,2.447l-1.178,5.3a.738.738,0,0,0,.72.9H4.248a.738.738,0,0,0,.721-.9l-1.178-5.3A1.42,1.42,0,0,0,3.708,13.6,2.177,2.177,0,0,1,4.662,11.9l9.025,2.773a3.691,3.691,0,0,0,2.159,0L28.72,10.721a1.087,1.087,0,0,0,0-2.1ZM16.281,16.087a5.166,5.166,0,0,1-3.027,0L6.561,14.031l-.654,5.236c0,1.631,3.967,2.953,8.86,2.953s8.86-1.322,8.86-2.953l-.654-5.236-6.693,2.056Z" transform="translate(-4.992 -5.2)" fill="#fff"/>
  </g>
</svg>
