<svg xmlns="http://www.w3.org/2000/svg" width="22.449" height="17.721" viewBox="0 0 22.449 17.721">
  <g id="Icon" transform="translate(1.449 0.7)">
    <rect id="Area" width="22" height="17" transform="translate(-1)" fill="#fff" opacity="0"/>
    <path id="Icon_awesome-user-cog" data-name="Icon awesome-user-cog" d="M21.13,12.92a4.06,4.06,0,0,0,0-1.474l.893-.516a.251.251,0,0,0,.114-.294,5.194,5.194,0,0,0-1.149-1.987.252.252,0,0,0-.312-.048l-.893.516a4.064,4.064,0,0,0-1.277-.737V7.348a.252.252,0,0,0-.2-.246,5.222,5.222,0,0,0-2.291,0,.252.252,0,0,0-.2.246V8.379a4.064,4.064,0,0,0-1.277.737L13.651,8.6a.253.253,0,0,0-.312.048,5.194,5.194,0,0,0-1.149,1.987.255.255,0,0,0,.114.294l.893.516a4.06,4.06,0,0,0,0,1.474l-.893.516a.251.251,0,0,0-.114.294,5.22,5.22,0,0,0,1.149,1.987.252.252,0,0,0,.312.048l.893-.516a4.064,4.064,0,0,0,1.277.737v1.031a.252.252,0,0,0,.2.246,5.222,5.222,0,0,0,2.291,0,.252.252,0,0,0,.2-.246V15.987a4.064,4.064,0,0,0,1.277-.737l.893.516a.253.253,0,0,0,.312-.048,5.194,5.194,0,0,0,1.149-1.987.255.255,0,0,0-.114-.294l-.893-.516Zm-3.963.941a1.679,1.679,0,1,1,1.679-1.679A1.68,1.68,0,0,1,17.167,13.862Zm-9.414-5a4.43,4.43,0,1,0-4.43-4.43A4.43,4.43,0,0,0,7.753,8.861ZM14.717,16.7c-.08-.042-.159-.09-.235-.135l-.273.159a1.358,1.358,0,0,1-1.679-.253,6.311,6.311,0,0,1-1.391-2.409,1.354,1.354,0,0,1,.62-1.582l.273-.159q-.005-.135,0-.27l-.273-.159a1.352,1.352,0,0,1-.62-1.582c.031-.1.076-.2.111-.3-.132-.01-.26-.042-.395-.042h-.578a6.025,6.025,0,0,1-5.046,0H4.652A4.653,4.653,0,0,0,0,14.62v1.44a1.662,1.662,0,0,0,1.661,1.661H13.845a1.659,1.659,0,0,0,.941-.294,1.348,1.348,0,0,1-.069-.408Z" transform="translate(-1.449 -0.7)" fill="#fff"/>
  </g>
</svg>
