<svg xmlns="http://www.w3.org/2000/svg" width="25.369" height="17.721" viewBox="0 0 25.369 17.721">
  <g id="Icon" transform="translate(2.67)">
    <rect id="Area" width="25.369" height="17.721" transform="translate(-2.67)" fill="#1d1d1b" opacity="0"/>
    <path id="Icon_metro-books" data-name="Icon metro-books" d="M7.74,8.571H3.31a.741.741,0,0,0-.738.738V25.554a.741.741,0,0,0,.738.738H7.74a.741.741,0,0,0,.738-.738V9.31a.741.741,0,0,0-.738-.738ZM7,13H4.048V11.525H7V13Zm8.122-4.43h-4.43a.741.741,0,0,0-.738.738V25.554a.741.741,0,0,0,.738.738h4.43a.741.741,0,0,0,.738-.738V9.31a.741.741,0,0,0-.738-.738ZM14.385,13H11.432V11.525h2.953Zm5.84-3.289-3.956,1.993a.741.741,0,0,0-.327.992l6.645,13.188a.74.74,0,0,0,.992.327l3.956-1.993a.741.741,0,0,0,.327-.992L21.217,10.04a.741.741,0,0,0-.992-.327Zm3.759,15.841a.738.738,0,1,1-.738-.738A.738.738,0,0,1,23.984,25.554Z" transform="translate(-5.241 -8.571)" fill="#fff"/>
  </g>
</svg>
