<?xml version="1.0" encoding="utf-8"?>
<!-- Generator: Adobe Illustrator 24.0.1, SVG Export Plug-In . SVG Version: 6.00 Build 0)  -->
<svg version="1.1" id="Layer_1" xmlns="http://www.w3.org/2000/svg" xmlns:xlink="http://www.w3.org/1999/xlink" x="0px" y="0px"
	 viewBox="0 0 2923.3 1277" style="enable-background:new 0 0 2923.3 1277;" xml:space="preserve">
<style type="text/css">
	.st0{fill:url(#SVGID_1_);}
	.st1{fill:#FFFFFF;}
	.st2{fill:#CDCDCD;}
</style>
<title>logo_degrade_quente_linhas_brancas</title>
<linearGradient id="SVGID_1_" gradientUnits="userSpaceOnUse" x1="230.27" y1="656.3" x2="905.08" y2="656.3" gradientTransform="matrix(1 0 0 -1 0 1278)">
	<stop  offset="0" style="stop-color:#F39419"/>
	<stop  offset="1" style="stop-color:#E52A3D"/>
</linearGradient>
<polygon class="st0" points="230.3,1204.6 457,1074.8 448.7,804.2 567.7,922.2 697.4,663.4 698,940.4 902.3,815.6 905.1,38.8 
	687.7,152.7 567.7,483.4 452.4,288.6 230.3,403.8 "/>
<path class="st1" d="M1030,878.9l-160.6-86.5l2.7-751.7l147.8,79.6c5.1,3.3,11.9,1.8,15.2-3.3s1.8-11.9-3.3-15.2
	c-0.5-0.3-1-0.6-1.5-0.8L866.7,12.8c-1.5-0.8-3.1-1.2-4.8-1.3c-0.3,0-0.5,0-0.8,0c-0.4,0-0.9,0.1-1.3,0.1c-1.3,0.1-2.5,0.5-3.6,1.1
	L644.5,123.5L484.6,37.4c-5.5-2.5-12.1,0-14.5,5.6c-2.2,5-0.5,10.8,4.1,13.7l156.2,84.2L521.4,441.4L418,266.6
	c-0.1-0.2-0.2-0.3-0.3-0.5c-0.2-0.3-0.4-0.6-0.6-0.9c-0.2-0.3-0.5-0.6-0.8-0.8c-0.2-0.2-0.5-0.4-0.7-0.6c-0.3-0.3-0.7-0.5-1-0.7
	c-0.2-0.1-0.3-0.2-0.5-0.3l-151.8-89.2c-5-3.5-11.8-2.2-15.3,2.8c-3.5,5-2.2,11.8,2.8,15.3c0.5,0.3,0.9,0.6,1.4,0.8l134.6,79.1
	l-200,103.7L22.6,287.4c-5.1-3.3-11.9-1.8-15.2,3.3s-1.8,11.9,3.3,15.2c0.5,0.3,1,0.6,1.5,0.8l163.2,87.9V1170l-154.4-91.6
	c-5.4-2.7-12-0.5-14.7,5c-2.4,4.9-0.9,10.8,3.5,13.9l169,100.3c1.7,1,3.6,1.5,5.6,1.5c0.3,0,0.7-0.1,1-0.1s0.6,0.1,1,0.1
	c1.9,0,3.8-0.5,5.4-1.4l219.7-125.8l159.8,86.2c5.5,2.5,12.1,0,14.5-5.5c2.2-5,0.5-10.8-4.1-13.8l-157.9-85.1l-7.3-238.7l99.4,98.7
	c4.3,4.3,11.3,4.2,15.6-0.1c0.8-0.8,1.5-1.7,2-2.7l109-217.5l0.5,230.8c0.3,4.4,2.7,8.4,6.4,10.8l163.6,88.2
	c5.1,3.3,11.9,1.8,15.2-3.3c3.3-5.1,1.8-11.9-3.3-15.2c-0.5-0.3-1-0.6-1.5-0.8l-148.2-79.9L859,811.6l160.7,86.6
	c5.5,2.5,12.1,0,14.5-5.5C1036.4,887.7,1034.7,881.8,1030,878.9L1030,878.9z M847.5,792.9L665,904.4l-0.5-257.5
	c-0.1-6.1-5.1-10.9-11.1-10.9c-4.1,0-7.8,2.3-9.6,6L520.8,887.3L412.6,779.9c-4.3-4.2-11.3-4.2-15.6,0.2c-2.1,2.1-3.2,5-3.1,8l8,264
	l-204.5,117.1V394l207-107.3l110,185.9c3.1,5.2,9.9,6.9,15.1,3.8c2.1-1.3,3.8-3.3,4.7-5.6L652.7,144L850.2,40.6L847.5,792.9z"/>
<polygon class="st2" points="1260.5,254.6 1380.5,254.6 1380.5,223.6 1260.5,223.6 1260.5,157.7 1393.3,157.7 1393.3,126.7 
	1226.8,126.7 1226.8,353.2 1260.5,353.2 "/>
<path class="st2" d="M1491.6,357.2c20.8,0,44.2-9.6,56.7-27.4v23.4h32V250c0-42.2-25.4-71.2-71.2-71.2c-18.7,0-40.2,5-64.6,17.1
	l11.9,24.1c14.8-7.6,31.3-14.2,48.2-14.2c34,0,43.8,22.8,43.8,44.2v5.3c-16.5-5.6-34.6-9.2-51.4-9.2c-37.6,0-68.3,22.8-68.3,56.7
	C1428.6,336.1,1455.3,357.2,1491.6,357.2z M1501.8,270.4c15.7-0.1,31.4,2.1,46.5,6.6v22.8c-5.6,21.1-29.3,31.7-50.4,31.7
	c-21.4,0-37.9-11.2-37.9-29.7S1479,270.4,1501.8,270.4z"/>
<path class="st2" d="M1716,357.2c25.4,0,47.5-10.5,63.9-27.4l-22.1-20.1c-10.5,12-25.6,18.9-41.5,19.1c-31.3,0-57-27.7-57-61
	c0-33,25.7-60.7,56.7-60.7c15.6,0,30.5,6.7,40.9,18.5l22.1-20.4c-16.5-16.8-39.1-26.3-62.6-26.4c-48.8,0-90,40.6-90,89
	S1667.6,357.2,1716,357.2z"/>
<path class="st2" d="M1886.5,357.2c23.1,0,43.8-11.9,54.1-28.7v24.7h32.6V182.7h-32.6v110.5c-2.7,20.1-23.1,35.6-46.8,35.6
	c-23.1,0-39.2-17.8-39.2-43.2V182.7h-32v108.5C1822.5,329.8,1848.9,357.2,1886.5,357.2z"/>
<rect x="2028.9" y="122.7" class="st2" width="32.3" height="230.5"/>
<path class="st2" d="M2248.1,323.5v29.7h32.3V122.7h-32.3v89.4c-13.2-20.8-34.3-33.3-60.7-33.3c-44.8,0-78.5,36.9-78.5,89
	c0,52.4,33.6,89.4,78.5,89.4C2213.8,357.2,2234.9,344.7,2248.1,323.5z M2195.3,328.8c-31.3,0-53.4-25.4-53.4-61s22.1-60.7,53.4-60.7
	c30.7,0,52.7,25.1,52.7,60.7S2226,328.8,2195.3,328.8z"/>
<path class="st2" d="M2391.8,357.2c20.8,0,44.2-9.6,56.7-27.4v23.4h32V250c0-42.2-25.4-71.2-71.2-71.2c-18.7,0-40.2,5-64.6,17.1
	l11.9,24.1c14.8-7.6,31.3-14.2,48.2-14.2c34,0,43.8,22.8,43.8,44.2v5.3c-16.5-5.6-34.6-9.2-51.4-9.2c-37.6,0-68.3,22.8-68.3,56.7
	C2328.9,336.1,2355.6,357.2,2391.8,357.2z M2402.1,270.4c15.7-0.1,31.4,2.1,46.5,6.6v22.8c-5.6,21.1-29.3,31.7-50.4,31.7
	c-21.4,0-37.9-11.2-37.9-29.7S2379.3,270.4,2402.1,270.4z"/>
<path class="st2" d="M2606.4,357.2c26.4,0,47.5-12.5,60.7-33.6v29.7h32.3V122.7h-32.3v89.4c-13.2-20.8-34.3-33.3-60.7-33.3
	c-44.8,0-78.4,36.9-78.4,89C2528,320.2,2561.6,357.2,2606.4,357.2z M2614.3,207.1c30.7,0,52.7,25.1,52.7,60.7s-22.1,61-52.7,61
	c-31.3,0-53.4-25.4-53.4-61S2583,207.1,2614.3,207.1L2614.3,207.1z"/>
<path class="st2" d="M2835.2,357.2c24.1,0,53.7-10.2,68.9-26.4l-20.4-21.1c-10.2,10.6-31,18.5-48.8,18.5
	c-29.3,0-50.1-20.4-54.4-48.8h134.2c0-61-30-100.6-82.1-100.6c-47.1,0-85,37.6-85,88.7C2747.5,319.9,2787.7,357.2,2835.2,357.2z
	 M2833.9,207.8c29.3,0,45.5,19.1,49.1,45.5h-102.2C2786.1,225.6,2807.5,207.7,2833.9,207.8L2833.9,207.8z"/>
<polygon class="st2" points="1446.1,665.4 1339.4,475.2 1226.9,475.2 1226.9,873.7 1339.4,873.7 1339.4,660.2 1446.1,850.5 
	1552.8,660.2 1552.8,873.7 1665.3,873.7 1665.3,475.2 1552.8,475.2 "/>
<polygon class="st2" points="1946.1,461.9 1849.8,445.6 1784.8,540.8 1857.9,540.8 "/>
<path class="st2" d="M1853.9,566.8c-92.8,0-158.3,64.4-158.3,156c0,92.2,67.3,157.8,163,157.8c45.8,0,96.9-19.1,123.5-46.4
	l-61.5-62.1c-19.7,15.7-44.1,24.9-66.7,24.9c-28.4,0-50.5-18.5-59.2-47H2007C2007,634.7,1950.1,566.8,1853.9,566.8z M1796.4,691.5
	c9.9-24.9,30.8-41.2,57.4-41.2c24.4,0,43.5,16.2,51.6,41.2H1796.4z"/>
<rect x="2033.6" y="468.2" class="st2" width="111.9" height="405.4"/>
<polygon class="st2" points="2188.8,592.9 2189.1,873.7 2301,873.7 2300.7,592.9 "/>
<path class="st2" d="M2245.6,446.2c-32.5,0-58,26.7-58,56.8c0.1,32,26,57.9,58,58c31.3,0,56.8-26.7,56.8-58
	C2302.5,472.9,2277,446.2,2245.6,446.2z"/>
<path class="st2" d="M2487.2,566.8c-92.8,0-158.3,64.4-158.3,156c0,92.2,67.3,157.8,163,157.8c45.8,0,96.9-19.1,123.5-46.4
	l-61.5-62.1c-19.7,15.7-44.1,24.9-66.7,24.9c-28.4,0-50.5-18.5-59.2-47h212.3C2640.3,634.7,2583.4,566.8,2487.2,566.8z
	 M2429.8,691.5c9.9-24.9,30.8-41.2,57.4-41.2c24.4,0,43.5,16.2,51.6,41.2H2429.8z"/>
<polygon class="st2" points="2477.3,540.8 2550.4,540.8 2485.5,445.6 2389.2,461.9 "/>
<path class="st2" d="M2797.6,678.2c-30.2-7-43.5-8.7-43.5-18.6c0-8.7,10.4-16.8,26.1-16.8c28.4,0,62.6,15.7,87.6,31.9l37.7-68.4
	c-34.2-22.6-79-39.4-125.3-39.4c-78.3,0-125.3,45.2-125.3,103.2c0,70.8,60.9,84.1,115.4,95.7c27.8,5.8,45.2,11.6,45.2,22
	c0,9.9-7.5,15.1-28.4,15.1c-31.9,0-74.8-15.1-103.8-35.4l-41.8,67.9c36.5,28.4,90.5,45.2,142.7,45.2c81.2,0,130.5-39.4,130.5-101.5
	C2914.7,708.4,2852,690.4,2797.6,678.2z"/>
</svg>
